<svg width="15" height="15" viewBox="0 0 15 15" fill="none" xmlns="http://www.w3.org/2000/svg">
<g id="gravity-ui:list-ol">
<path id="Vector" fill-rule="evenodd" clip-rule="evenodd" d="M3.45122 2.70315C3.45122 2.62227 3.42881 2.54297 3.38646 2.47406C3.34411 2.40515 3.28349 2.34933 3.21133 2.3128C3.13917 2.27627 3.0583 2.26045 2.97769 2.26711C2.89708 2.27377 2.8199 2.30265 2.75472 2.35053L2.13347 2.80903C2.04628 2.8734 1.98609 2.96784 1.96455 3.07406C1.94301 3.18027 1.96167 3.2907 2.0169 3.38395C2.07213 3.4772 2.16 3.54663 2.2635 3.57879C2.36699 3.61095 2.47874 3.60355 2.57709 3.55803V4.89065C2.57709 5.00668 2.62319 5.11796 2.70523 5.20001C2.78728 5.28206 2.89856 5.32815 3.01459 5.32815C3.13062 5.32815 3.2419 5.28206 3.32395 5.20001C3.406 5.11796 3.45209 5.00668 3.45209 4.89065L3.45122 2.70315ZM5.67372 3.14065C5.49967 3.14065 5.33275 3.20979 5.20968 3.33286C5.08661 3.45593 5.01747 3.62285 5.01747 3.7969C5.01747 3.97095 5.08661 4.13787 5.20968 4.26094C5.33275 4.38401 5.49967 4.45315 5.67372 4.45315H13.1112C13.2853 4.45315 13.4522 4.38401 13.5753 4.26094C13.6983 4.13787 13.7675 3.97095 13.7675 3.7969C13.7675 3.62285 13.6983 3.45593 13.5753 3.33286C13.4522 3.20979 13.2853 3.14065 13.1112 3.14065H5.67372ZM5.67372 10.5782C5.49967 10.5782 5.33275 10.6473 5.20968 10.7704C5.08661 10.8934 5.01747 11.0604 5.01747 11.2344C5.01747 11.4085 5.08661 11.5754 5.20968 11.6984C5.33275 11.8215 5.49967 11.8907 5.67372 11.8907H13.1112C13.2853 11.8907 13.4522 11.8215 13.5753 11.6984C13.6983 11.5754 13.7675 11.4085 13.7675 11.2344C13.7675 11.0604 13.6983 10.8934 13.5753 10.7704C13.4522 10.6473 13.2853 10.5782 13.1112 10.5782H5.67372ZM5.01747 7.51565C5.01747 7.3416 5.08661 7.17468 5.20968 7.05161C5.33275 6.92854 5.49967 6.8594 5.67372 6.8594H13.1112C13.2853 6.8594 13.4522 6.92854 13.5753 7.05161C13.6983 7.17468 13.7675 7.3416 13.7675 7.51565C13.7675 7.6897 13.6983 7.85662 13.5753 7.97969C13.4522 8.10276 13.2853 8.1719 13.1112 8.1719H5.67372C5.49967 8.1719 5.33275 8.10276 5.20968 7.97969C5.08661 7.85662 5.01747 7.6897 5.01747 7.51565ZM2.74597 6.9294C2.68472 6.97403 2.66984 7.01428 2.66722 7.0309C2.64584 7.14181 2.5824 7.24016 2.49017 7.30536C2.39794 7.37056 2.28407 7.39757 2.17238 7.38072C2.06069 7.36388 1.95985 7.30449 1.89095 7.21499C1.82205 7.12549 1.79043 7.01281 1.80272 6.90053C1.84734 6.59865 2.03022 6.36678 2.23584 6.2189C2.44234 6.07103 2.70047 5.9844 2.96209 5.9844C3.26397 5.9844 3.54484 6.07978 3.75134 6.28453C3.95784 6.48928 4.04622 6.75965 4.04622 7.02828C4.04622 7.47453 3.76534 7.7764 3.38122 8.14653L3.36372 8.16228L3.35234 8.1719H3.78372C3.89975 8.1719 4.01103 8.218 4.09308 8.30004C4.17512 8.38209 4.22122 8.49337 4.22122 8.6094C4.22122 8.72543 4.17512 8.83671 4.09308 8.91876C4.01103 9.00081 3.89975 9.0469 3.78372 9.0469H2.17372C2.08441 9.04688 1.99724 9.01952 1.92393 8.96851C1.85063 8.9175 1.79469 8.84527 1.76363 8.76153C1.73257 8.6778 1.72789 8.58656 1.75021 8.50008C1.77252 8.41361 1.82077 8.33603 1.88847 8.27778L2.78272 7.50778C2.97784 7.31878 3.07847 7.20678 3.13097 7.12803C3.17122 7.06765 3.17122 7.04753 3.17122 7.0309V7.02915C3.17122 6.9504 3.14759 6.91803 3.13534 6.90578C3.12397 6.8944 3.08109 6.8594 2.96122 6.8594C2.88407 6.86064 2.80908 6.88503 2.74597 6.9294ZM2.30497 9.70315C2.18893 9.70315 2.07765 9.74925 1.99561 9.83129C1.91356 9.91334 1.86747 10.0246 1.86747 10.1407C1.86747 10.2567 1.91356 10.368 1.99561 10.45C2.07765 10.5321 2.18893 10.5782 2.30497 10.5782H2.63747L2.50622 10.7357C2.45306 10.7995 2.41917 10.8771 2.4085 10.9595C2.39784 11.0418 2.41084 11.1255 2.44599 11.2008C2.48114 11.2761 2.53698 11.3397 2.60699 11.3844C2.677 11.4291 2.75829 11.453 2.84134 11.4532C3.06797 11.4532 3.16072 11.5205 3.19747 11.5599C3.24209 11.6072 3.26747 11.6763 3.26747 11.7507C3.26788 11.755 3.26663 11.7594 3.26397 11.7629C3.25045 11.7812 3.23351 11.7966 3.21409 11.8084C3.11562 11.8654 3.00321 11.8939 2.88947 11.8907C2.81128 11.8926 2.7338 11.8755 2.66372 11.8408C2.61209 11.8128 2.59809 11.7874 2.59722 11.7848C2.54895 11.6792 2.46071 11.5971 2.35192 11.5566C2.24312 11.516 2.12268 11.5204 2.01709 11.5687C1.9115 11.6169 1.82941 11.7052 1.78888 11.814C1.74835 11.9227 1.7527 12.0432 1.80097 12.1488C1.98734 12.5548 2.43797 12.7657 2.88947 12.7657C3.16859 12.7657 3.45909 12.6939 3.69447 12.5399C3.93509 12.3815 4.14247 12.1138 4.14247 11.7507C4.14247 11.4943 4.05847 11.1959 3.83184 10.9579C3.76618 10.8888 3.6921 10.8283 3.61134 10.7777L3.90884 10.4215C3.96227 10.3577 3.99639 10.28 4.0072 10.1975C4.01801 10.115 4.00507 10.0311 3.96989 9.95569C3.93471 9.88028 3.87875 9.81646 3.80858 9.77173C3.73841 9.727 3.65693 9.70321 3.57372 9.70315H2.30497Z" fill="#999999"/>
</g>
</svg>
