<svg width="15" height="15" viewBox="0 0 15 15" fill="none" xmlns="http://www.w3.org/2000/svg">
<g id="ri:reset-left-line">
<path id="Vector" d="M13.4753 7.51302C13.4753 10.7348 10.8637 13.3464 7.64193 13.3464C4.42018 13.3464 1.80859 10.7348 1.80859 7.51302C1.80859 4.29127 4.42018 1.67969 7.64193 1.67969V2.84635C6.52457 2.84648 5.44435 3.24751 4.5976 3.97655C3.75085 4.7056 3.19379 5.71425 3.02766 6.81919C2.86153 7.92413 3.09737 9.052 3.69231 9.99779C4.28725 10.9436 5.20179 11.6445 6.26971 11.9732C7.33763 12.3019 8.48804 12.2365 9.51183 11.7889C10.5356 11.3413 11.3648 10.5413 11.8488 9.53413C12.3327 8.527 12.4392 7.37967 12.1489 6.30068C11.8586 5.22168 11.1908 4.28266 10.2669 3.65427V5.17969H9.10026V1.67969H12.6003V2.84635H11.1419C11.8667 3.3894 12.455 4.09391 12.86 4.90397C13.2651 5.71403 13.4757 6.60735 13.4753 7.51302Z" fill="#999999"/>
</g>
</svg>
