<svg width="39" height="23" viewBox="0 0 39 23" fill="none" xmlns="http://www.w3.org/2000/svg">
<rect x="0.662109" y="0.46875" width="37.5649" height="22.4587" rx="4" fill="#D9D9D9"/>
<path d="M23.9453 12.4453H20.1953V16.1953C20.1953 16.6078 19.8578 16.9453 19.4453 16.9453C19.0328 16.9453 18.6953 16.6078 18.6953 16.1953V12.4453H14.9453C14.5328 12.4453 14.1953 12.1078 14.1953 11.6953C14.1953 11.2828 14.5328 10.9453 14.9453 10.9453H18.6953V7.19531C18.6953 6.78281 19.0328 6.44531 19.4453 6.44531C19.8578 6.44531 20.1953 6.78281 20.1953 7.19531V10.9453H23.9453C24.3578 10.9453 24.6953 11.2828 24.6953 11.6953C24.6953 12.1078 24.3578 12.4453 23.9453 12.4453Z" fill="white"/>
</svg>
