<svg width="39" height="23" viewBox="0 0 39 23" fill="none" xmlns="http://www.w3.org/2000/svg">
<rect x="0.486328" y="0.46875" width="37.5649" height="22.4587" rx="4" fill="url(#paint0_linear_2173_17104)"/>
<path d="M23.7695 12.4453H20.0195V16.1953C20.0195 16.6078 19.682 16.9453 19.2695 16.9453C18.857 16.9453 18.5195 16.6078 18.5195 16.1953V12.4453H14.7695C14.357 12.4453 14.0195 12.1078 14.0195 11.6953C14.0195 11.2828 14.357 10.9453 14.7695 10.9453H18.5195V7.19531C18.5195 6.78281 18.857 6.44531 19.2695 6.44531C19.682 6.44531 20.0195 6.78281 20.0195 7.19531V10.9453H23.7695C24.182 10.9453 24.5195 11.2828 24.5195 11.6953C24.5195 12.1078 24.182 12.4453 23.7695 12.4453Z" fill="white"/>
<defs>
<linearGradient id="paint0_linear_2173_17104" x1="19.2688" y1="0.46875" x2="19.2688" y2="22.9275" gradientUnits="userSpaceOnUse">
<stop stop-color="#5AD3EB"/>
<stop offset="1" stop-color="#39C2DD"/>
</linearGradient>
</defs>
</svg>
