<svg width="25" height="24" viewBox="0 0 25 24" fill="none" xmlns="http://www.w3.org/2000/svg">
<g id="basil:notification-outline">
<path id="Vector" fill-rule="evenodd" clip-rule="evenodd" d="M13.484 3.81594C13.484 3.56224 13.3786 3.31894 13.1911 3.13955C13.0036 2.96016 12.7492 2.85938 12.484 2.85938C12.2188 2.85938 11.9644 2.96016 11.7769 3.13955C11.5893 3.31894 11.484 3.56224 11.484 3.81594V4.53336H10.927C9.85502 4.53329 8.82332 4.92401 8.04191 5.62598C7.26051 6.32795 6.78815 7.28839 6.72099 8.31178L6.49999 11.6923C6.41572 12.9812 5.96329 14.2233 5.19199 15.2832C5.03262 15.5023 4.93525 15.7572 4.90933 16.0229C4.88342 16.2887 4.92985 16.5564 5.0441 16.7999C5.15836 17.0434 5.33655 17.2545 5.56136 17.4127C5.78616 17.5708 6.04992 17.6706 6.32699 17.7023L9.73399 18.0926V19.1209C9.73399 19.8186 10.0237 20.4877 10.5394 20.981C11.0552 21.4743 11.7546 21.7515 12.484 21.7515C13.2133 21.7515 13.9128 21.4743 14.4285 20.981C14.9443 20.4877 15.234 19.8186 15.234 19.1209V18.0926L18.641 17.7014C18.9179 17.6695 19.1815 17.5697 19.4061 17.4117C19.6308 17.2536 19.8089 17.0426 19.9231 16.7992C20.0374 16.5558 20.0839 16.2883 20.0581 16.0227C20.0323 15.757 19.9351 15.5023 19.776 15.2832C19.0046 14.2233 18.5522 12.9812 18.468 11.6923L18.247 8.31274C18.1801 7.28917 17.7078 6.32849 16.9264 5.62633C16.145 4.92416 15.1131 4.53331 14.041 4.53336H13.484V3.81594ZM10.927 5.9682C10.2366 5.96812 9.57206 6.21975 9.06877 6.67186C8.56548 7.12396 8.26124 7.74256 8.21799 8.4017L7.99799 11.7822C7.89633 13.3328 7.35191 14.8269 6.42399 16.102C6.41246 16.1179 6.40541 16.1363 6.40353 16.1555C6.40164 16.1747 6.40499 16.1941 6.41324 16.2117C6.4215 16.2293 6.43438 16.2446 6.45063 16.2561C6.46688 16.2675 6.48595 16.2748 6.50599 16.2771L10.243 16.7066C11.732 16.8768 13.236 16.8768 14.725 16.7066L18.462 16.2771C18.482 16.2748 18.5011 16.2675 18.5174 16.2561C18.5336 16.2446 18.5465 16.2293 18.5547 16.2117C18.563 16.1941 18.5663 16.1747 18.5645 16.1555C18.5626 16.1363 18.5555 16.1179 18.544 16.102C17.6164 14.8268 17.0723 13.3327 16.971 11.7822L16.75 8.4017C16.7067 7.74256 16.4025 7.12396 15.8992 6.67186C15.3959 6.21975 14.7314 5.96812 14.041 5.9682H10.927ZM12.484 20.3166C11.794 20.3166 11.234 19.781 11.234 19.1209V18.4035H13.734V19.1209C13.734 19.781 13.174 20.3166 12.484 20.3166Z" fill="#303030"/>
</g>
</svg>
