<svg width="18" height="19" viewBox="0 0 18 19" fill="none" xmlns="http://www.w3.org/2000/svg">
<path d="M2.67939 0.710938C1.15285 0.710938 -0.0898438 1.95363 -0.0898438 3.48017V15.9417C-0.0898438 17.4682 1.15285 18.7109 2.67939 18.7109H11.6794C12.4153 18.7109 13.4372 17.6482 14.6217 16.4395C14.7878 16.2706 14.9471 16.112 15.1195 15.9417C15.2898 15.77 15.4698 15.5886 15.6387 15.4225C16.8482 14.2372 17.9102 13.2161 17.9102 12.4802V3.48017C17.9102 1.95363 16.6675 0.710938 15.1409 0.710938H2.67939ZM2.67939 2.09555H15.1409C15.5081 2.09555 15.8603 2.24143 16.12 2.5011C16.3797 2.76076 16.5255 3.11295 16.5255 3.48017V12.4802C16.5255 13.169 15.8318 13.1725 15.1409 13.1725H13.064C12.6825 13.1725 12.3717 13.4833 12.3717 13.8648V15.9853C12.3717 16.5994 12.3731 17.1989 11.8739 17.3263H2.67939C2.31216 17.3263 1.95998 17.1804 1.70032 16.9208C1.44065 16.6611 1.29477 16.3089 1.29477 15.9417V3.48017C1.29477 3.11295 1.44065 2.76076 1.70032 2.5011C1.95998 2.24143 2.31216 2.09555 2.67939 2.09555ZM4.62685 6.2494C4.44324 6.26657 4.27397 6.35597 4.15627 6.49794C4.03858 6.63992 3.9821 6.82283 3.99927 7.00644C4.01644 7.19005 4.10584 7.35932 4.24782 7.47701C4.38979 7.59471 4.5727 7.65118 4.75631 7.63401H13.064C13.2476 7.63401 13.4237 7.56108 13.5535 7.43124C13.6834 7.30141 13.7563 7.12532 13.7563 6.94171C13.7563 6.7581 13.6834 6.582 13.5535 6.45217C13.4237 6.32234 13.2476 6.2494 13.064 6.2494H4.75631C4.73463 6.24838 4.71291 6.24838 4.69123 6.2494C4.66978 6.2484 4.6483 6.2484 4.62685 6.2494ZM4.62685 9.71094C4.44324 9.72811 4.27397 9.81751 4.15627 9.95948C4.03858 10.1015 3.9821 10.2844 3.99927 10.468C4.01644 10.6516 4.10584 10.8209 4.24782 10.9386C4.38979 11.0562 4.5727 11.1127 4.75631 11.0956H11.6794C11.863 11.0956 12.0391 11.0226 12.1689 10.8928C12.2988 10.7629 12.3717 10.5869 12.3717 10.4032C12.3717 10.2196 12.2988 10.0435 12.1689 9.91371C12.0391 9.78388 11.863 9.71094 11.6794 9.71094H4.75631C4.73463 9.70992 4.71291 9.70992 4.69123 9.71094C4.66978 9.70994 4.6483 9.70994 4.62685 9.71094Z" fill="url(#paint0_linear_2173_16098)"/>
<defs>
<linearGradient id="paint0_linear_2173_16098" x1="8.91016" y1="0.710937" x2="8.91016" y2="18.7109" gradientUnits="userSpaceOnUse">
<stop stop-color="#5AD3EB"/>
<stop offset="1" stop-color="#A9EB8B"/>
</linearGradient>
</defs>
</svg>
