<svg width="25" height="25" viewBox="0 0 25 25" fill="none" xmlns="http://www.w3.org/2000/svg">
<g id="ic:round-home">
<path id="Vector" d="M10.4459 19.4675V14.4675H14.4459V19.4675C14.4459 20.0175 14.8959 20.4675 15.4459 20.4675H18.4459C18.9959 20.4675 19.4459 20.0175 19.4459 19.4675V12.4675H21.1459C21.6059 12.4675 21.8259 11.8975 21.4759 11.5975L13.1159 4.0675C12.7359 3.7275 12.1559 3.7275 11.7759 4.0675L3.4159 11.5975C3.0759 11.8975 3.2859 12.4675 3.7459 12.4675H5.4459V19.4675C5.4459 20.0175 5.8959 20.4675 6.4459 20.4675H9.4459C9.9959 20.4675 10.4459 20.0175 10.4459 19.4675Z" fill="url(#paint0_linear_2173_14248)"/>
</g>
<defs>
<linearGradient id="paint0_linear_2173_14248" x1="12.4481" y1="3.8125" x2="12.4481" y2="20.4675" gradientUnits="userSpaceOnUse">
<stop stop-color="#5AD3EB"/>
<stop offset="1" stop-color="#A9EB8B"/>
</linearGradient>
</defs>
</svg>
