<svg width="19" height="19" viewBox="0 0 19 19" fill="none" xmlns="http://www.w3.org/2000/svg">
<g id="wpf:note" clip-path="url(#clip0_2173_15590)">
<path id="Vector" d="M3.32001 0.710938C1.79347 0.710938 0.550781 1.95363 0.550781 3.48017V15.9417C0.550781 17.4682 1.79347 18.7109 3.32001 18.7109H12.32C13.0559 18.7109 14.0778 17.6482 15.2623 16.4395C15.4285 16.2706 15.5877 16.112 15.7601 15.9417C15.9304 15.77 16.1104 15.5886 16.2793 15.4225C17.4888 14.2372 18.5508 13.2161 18.5508 12.4802V3.48017C18.5508 1.95363 17.3081 0.710938 15.7816 0.710938H3.32001ZM3.32001 2.09555H15.7816C16.1488 2.09555 16.501 2.24143 16.7606 2.5011C17.0203 2.76076 17.1662 3.11295 17.1662 3.48017V12.4802C17.1662 13.169 16.4725 13.1725 15.7816 13.1725H13.7046C13.3232 13.1725 13.0123 13.4833 13.0123 13.8648V15.9853C13.0123 16.5994 13.0137 17.1989 12.5146 17.3263H3.32001C2.95279 17.3263 2.60061 17.1804 2.34094 16.9208C2.08128 16.6611 1.9354 16.3089 1.9354 15.9417V3.48017C1.9354 3.11295 2.08128 2.76076 2.34094 2.5011C2.60061 2.24143 2.95279 2.09555 3.32001 2.09555ZM5.26747 6.2494C5.08386 6.26657 4.91459 6.35597 4.7969 6.49794C4.6792 6.63992 4.62273 6.82283 4.6399 7.00644C4.65706 7.19005 4.74647 7.35932 4.88844 7.47701C5.03041 7.59471 5.21332 7.65118 5.39694 7.63401H13.7046C13.8882 7.63401 14.0643 7.56108 14.1942 7.43124C14.324 7.30141 14.3969 7.12532 14.3969 6.94171C14.3969 6.7581 14.324 6.582 14.1942 6.45217C14.0643 6.32234 13.8882 6.2494 13.7046 6.2494H5.39694C5.37526 6.24838 5.35354 6.24838 5.33186 6.2494C5.31041 6.2484 5.28892 6.2484 5.26747 6.2494ZM5.26747 9.71094C5.08386 9.72811 4.91459 9.81751 4.7969 9.95948C4.6792 10.1015 4.62273 10.2844 4.6399 10.468C4.65706 10.6516 4.74647 10.8209 4.88844 10.9386C5.03041 11.0562 5.21332 11.1127 5.39694 11.0956H12.32C12.5036 11.0956 12.6797 11.0226 12.8095 10.8928C12.9394 10.7629 13.0123 10.5869 13.0123 10.4032C13.0123 10.2196 12.9394 10.0435 12.8095 9.91371C12.6797 9.78388 12.5036 9.71094 12.32 9.71094H5.39694C5.37526 9.70992 5.35354 9.70992 5.33186 9.71094C5.31041 9.70994 5.28892 9.70994 5.26747 9.71094Z" fill="#B7B7B7"/>
</g>
<defs>
<clipPath id="clip0_2173_15590">
<rect width="18" height="18" fill="white" transform="translate(0.550781 0.710938)"/>
</clipPath>
</defs>
</svg>
