<svg width="25" height="25" viewBox="0 0 25 25" fill="none" xmlns="http://www.w3.org/2000/svg">
<g id="clarity:user-line" clip-path="url(#clip0_2173_18647)">
<path id="Vector" d="M12.1335 11.8021C13.0564 11.8021 13.9587 11.5284 14.7261 11.0156C15.4936 10.5028 16.0917 9.774 16.4449 8.92127C16.7981 8.06855 16.8905 7.13024 16.7105 6.225C16.5304 5.31975 16.0859 4.48823 15.4333 3.83559C14.7807 3.18294 13.9491 2.73849 13.0439 2.55842C12.1386 2.37836 11.2003 2.47077 10.3476 2.82398C9.49489 3.17719 8.76605 3.77533 8.25327 4.54276C7.74049 5.31019 7.4668 6.21244 7.4668 7.13542C7.4668 8.3731 7.95846 9.56008 8.83363 10.4352C9.7088 11.3104 10.8958 11.8021 12.1335 11.8021ZM12.1335 3.80209C12.7927 3.80209 13.4372 3.99758 13.9854 4.36385C14.5335 4.73012 14.9608 5.25072 15.2131 5.85981C15.4654 6.46889 15.5314 7.13912 15.4027 7.78572C15.2741 8.43232 14.9567 9.02627 14.4905 9.49244C14.0243 9.95862 13.4304 10.2761 12.7838 10.4047C12.1372 10.5333 11.4669 10.4673 10.8579 10.215C10.2488 9.96272 9.72817 9.53548 9.3619 8.98732C8.99563 8.43916 8.80013 7.79469 8.80013 7.13542C8.80013 6.25136 9.15132 5.40352 9.77644 4.7784C10.4016 4.15327 11.2494 3.80209 12.1335 3.80209Z" fill="url(#paint0_linear_2173_18647)"/>
<path id="Vector_2" d="M20.4468 16.7182C19.3777 15.5882 18.0893 14.6881 16.6605 14.073C15.2317 13.4579 13.6924 13.1406 12.1368 13.1406C10.5812 13.1406 9.04193 13.4579 7.6131 14.073C6.18428 14.6881 4.89593 15.5882 3.8268 16.7182C3.59501 16.9658 3.46627 17.2924 3.4668 17.6315V21.1382C3.4668 21.4918 3.60727 21.831 3.85732 22.081C4.10737 22.3311 4.44651 22.4715 4.80013 22.4715H19.4668C19.8204 22.4715 20.1596 22.3311 20.4096 22.081C20.6597 21.831 20.8001 21.4918 20.8001 21.1382V17.6315C20.8025 17.2933 20.6762 16.9668 20.4468 16.7182ZM19.4668 21.1382H4.80013V17.6249C5.74495 16.63 6.88232 15.8378 8.14304 15.2964C9.40375 14.755 10.7614 14.4759 12.1335 14.4759C13.5055 14.4759 14.8632 14.755 16.1239 15.2964C17.3846 15.8378 18.522 16.63 19.4668 17.6249V21.1382Z" fill="url(#paint1_linear_2173_18647)"/>
</g>
<defs>
<linearGradient id="paint0_linear_2173_18647" x1="12.1335" y1="2.46875" x2="12.1335" y2="11.8021" gradientUnits="userSpaceOnUse">
<stop stop-color="#A9EB8B"/>
<stop offset="1" stop-color="#5AD3EB"/>
</linearGradient>
<linearGradient id="paint1_linear_2173_18647" x1="12.1335" y1="13.1406" x2="12.1335" y2="22.4715" gradientUnits="userSpaceOnUse">
<stop stop-color="#A9EB8B"/>
<stop offset="1" stop-color="#5AD3EB"/>
</linearGradient>
<clipPath id="clip0_2173_18647">
<rect width="24" height="24" fill="white" transform="translate(0.132812 0.46875)"/>
</clipPath>
</defs>
</svg>
