<svg width="25" height="25" viewBox="0 0 25 25" fill="none" xmlns="http://www.w3.org/2000/svg">
<g id="clarity:user-line" clip-path="url(#clip0_2173_14253)">
<path id="Vector" d="M12.446 11.8021C13.3689 11.8021 14.2712 11.5284 15.0386 11.0156C15.8061 10.5028 16.4042 9.774 16.7574 8.92127C17.1106 8.06855 17.203 7.13024 17.023 6.225C16.8429 5.31975 16.3984 4.48823 15.7458 3.83559C15.0932 3.18294 14.2616 2.73849 13.3564 2.55842C12.4511 2.37836 11.5128 2.47077 10.6601 2.82398C9.80739 3.17719 9.07855 3.77533 8.56577 4.54276C8.05299 5.31019 7.7793 6.21244 7.7793 7.13542C7.7793 8.3731 8.27096 9.56008 9.14613 10.4352C10.0213 11.3104 11.2083 11.8021 12.446 11.8021ZM12.446 3.80209C13.1052 3.80209 13.7497 3.99758 14.2979 4.36385C14.846 4.73012 15.2733 5.25072 15.5256 5.85981C15.7779 6.46889 15.8439 7.13912 15.7152 7.78572C15.5866 8.43232 15.2692 9.02627 14.803 9.49244C14.3368 9.95862 13.7429 10.2761 13.0963 10.4047C12.4497 10.5333 11.7794 10.4673 11.1704 10.215C10.5613 9.96272 10.0407 9.53548 9.6744 8.98732C9.30813 8.43916 9.11263 7.79469 9.11263 7.13542C9.11263 6.25136 9.46382 5.40352 10.0889 4.7784C10.7141 4.15327 11.5619 3.80209 12.446 3.80209Z" fill="#B7B7B7"/>
<path id="Vector_2" d="M20.7593 16.7182C19.6902 15.5882 18.4018 14.6881 16.973 14.073C15.5442 13.4579 14.0049 13.1406 12.4493 13.1406C10.8937 13.1406 9.35443 13.4579 7.9256 14.073C6.49678 14.6881 5.20843 15.5882 4.1393 16.7182C3.90751 16.9658 3.77877 17.2924 3.7793 17.6315V21.1382C3.7793 21.4918 3.91977 21.831 4.16982 22.081C4.41987 22.3311 4.75901 22.4715 5.11263 22.4715H19.7793C20.1329 22.4715 20.4721 22.3311 20.7221 22.081C20.9722 21.831 21.1126 21.4918 21.1126 21.1382V17.6315C21.115 17.2933 20.9887 16.9668 20.7593 16.7182ZM19.7793 21.1382H5.11263V17.6249C6.05745 16.63 7.19482 15.8378 8.45554 15.2964C9.71625 14.755 11.0739 14.4759 12.446 14.4759C13.818 14.4759 15.1757 14.755 16.4364 15.2964C17.6971 15.8378 18.8345 16.63 19.7793 17.6249V21.1382Z" fill="#B7B7B7"/>
</g>
<defs>
<clipPath id="clip0_2173_14253">
<rect width="24" height="24" fill="white" transform="translate(0.445312 0.46875)"/>
</clipPath>
</defs>
</svg>
