<svg width="23" height="23" viewBox="0 0 23 23" fill="none" xmlns="http://www.w3.org/2000/svg">
<g id="mingcute:search-line">
<g id="Group">
<path id="Vector" fill-rule="evenodd" clip-rule="evenodd" d="M10.2363 2.54688C8.99386 2.54698 7.76944 2.84421 6.66522 3.41376C5.561 3.98331 4.60898 4.80867 3.88862 5.82098C3.16825 6.83329 2.70041 8.00319 2.52413 9.23308C2.34786 10.463 2.46825 11.7172 2.87528 12.8911C3.28231 14.065 3.96416 15.1245 4.86395 15.9813C5.76374 16.8381 6.85538 17.4673 8.04779 17.8163C9.2402 18.1654 10.4988 18.2243 11.7186 17.988C12.9384 17.7518 14.084 17.2273 15.0598 16.4582L18.4075 19.8059C18.5804 19.9729 18.8119 20.0652 19.0523 20.0632C19.2926 20.0611 19.5225 19.9647 19.6925 19.7947C19.8624 19.6248 19.9588 19.3948 19.9609 19.1545C19.963 18.9141 19.8706 18.6826 19.7037 18.5097L16.356 15.162C17.2616 14.0131 17.8256 12.6324 17.9832 11.178C18.1408 9.7235 17.8857 8.25406 17.2472 6.93779C16.6087 5.62153 15.6125 4.51162 14.3726 3.73509C13.1327 2.95856 11.6993 2.54678 10.2363 2.54688ZM4.27798 10.3385C4.27798 8.75829 4.90573 7.24277 6.02314 6.12536C7.14054 5.00796 8.65607 4.38021 10.2363 4.38021C11.8166 4.38021 13.3321 5.00796 14.4495 6.12536C15.5669 7.24277 16.1947 8.75829 16.1947 10.3385C16.1947 11.9188 15.5669 13.4343 14.4495 14.5517C13.3321 15.6691 11.8166 16.2969 10.2363 16.2969C8.65607 16.2969 7.14054 15.6691 6.02314 14.5517C4.90573 13.4343 4.27798 11.9188 4.27798 10.3385Z" fill="#B7B7B7"/>
</g>
</g>
</svg>
