<svg width="18" height="19" viewBox="0 0 18 19" fill="none" xmlns="http://www.w3.org/2000/svg">
<path fill-rule="evenodd" clip-rule="evenodd" d="M8.23632 0.546875C6.99386 0.546981 5.76944 0.844209 4.66522 1.41376C3.561 1.98331 2.60899 2.80867 1.88862 3.82098C1.16825 4.83329 0.700409 6.00319 0.524132 7.23308C0.347856 8.46297 0.468253 9.71718 0.87528 10.8911C1.28231 12.065 1.96416 13.1245 2.86395 13.9813C3.76374 14.8381 4.85538 15.4673 6.04779 15.8163C7.2402 16.1654 8.4988 16.2243 9.71859 15.988C10.9384 15.7518 12.084 15.2273 13.0598 14.4582L16.4075 17.8059C16.5804 17.9729 16.8119 18.0652 17.0523 18.0632C17.2926 18.0611 17.5225 17.9647 17.6925 17.7947C17.8624 17.6248 17.9588 17.3948 17.9609 17.1545C17.963 16.9141 17.8706 16.6826 17.7037 16.5097L14.356 13.162C15.2616 12.0131 15.8255 10.6324 15.9832 9.17796C16.1408 7.7235 15.8857 6.25406 15.2472 4.93779C14.6087 3.62153 13.6125 2.51162 12.3726 1.73509C11.1327 0.958556 9.69928 0.546777 8.23632 0.546875ZM2.27798 8.33854C2.27798 6.75829 2.90573 5.24277 4.02314 4.12536C5.14054 3.00796 6.65607 2.38021 8.23632 2.38021C9.81657 2.38021 11.3321 3.00796 12.4495 4.12536C13.5669 5.24277 14.1947 6.75829 14.1947 8.33854C14.1947 9.91879 13.5669 11.4343 12.4495 12.5517C11.3321 13.6691 9.81657 14.2969 8.23632 14.2969C6.65607 14.2969 5.14054 13.6691 4.02314 12.5517C2.90573 11.4343 2.27798 9.91879 2.27798 8.33854Z" fill="url(#paint0_linear_2173_15326)"/>
<defs>
<linearGradient id="paint0_linear_2173_15326" x1="9.20314" y1="0.546875" x2="9.20314" y2="18.0632" gradientUnits="userSpaceOnUse">
<stop stop-color="#00FFE0"/>
<stop offset="1" stop-color="#A9EB8B"/>
</linearGradient>
</defs>
</svg>
