<svg width="16" height="16" viewBox="0 0 16 16" fill="none" xmlns="http://www.w3.org/2000/svg">
<g id="eva:attach-2-fill">
<path id="Vector" d="M7.80273 13.9148C6.83341 13.9383 5.89432 13.5765 5.19135 12.9087C4.48839 12.2409 4.07892 11.3216 4.05273 10.3523V3.99607C4.07076 3.29539 4.36564 2.63038 4.87283 2.14661C5.38003 1.66284 6.05823 1.39971 6.75898 1.41482C7.46081 1.39803 8.14061 1.66041 8.64917 2.14436C9.15773 2.62831 9.45347 3.29428 9.47148 3.99607V10.3586C9.44549 10.7827 9.25869 11.1809 8.94918 11.472C8.63968 11.7632 8.23077 11.9252 7.80586 11.9252C7.38095 11.9252 6.97204 11.7632 6.66253 11.472C6.35302 11.1809 6.16623 10.7827 6.14023 10.3586V4.48982C6.14023 4.32406 6.20608 4.16509 6.32329 4.04788C6.4405 3.93067 6.59947 3.86482 6.76523 3.86482C6.93099 3.86482 7.08997 3.93067 7.20718 4.04788C7.32439 4.16509 7.39023 4.32406 7.39023 4.48982V10.3586C7.4027 10.46 7.45184 10.5534 7.5284 10.6211C7.60496 10.6889 7.70364 10.7263 7.80586 10.7263C7.90808 10.7263 8.00676 10.6889 8.08332 10.6211C8.15988 10.5534 8.20902 10.46 8.22148 10.3586V3.99607C8.20205 3.62633 8.03759 3.27916 7.76378 3.02993C7.48997 2.7807 7.12892 2.6495 6.75898 2.66482C6.39011 2.65118 6.03066 2.78314 5.75821 3.0322C5.48576 3.28126 5.32217 3.62745 5.30273 3.99607V10.3523C5.32875 10.9901 5.60646 11.5916 6.07504 12.025C6.54362 12.4584 7.16487 12.6885 7.80273 12.6648C8.4406 12.6885 9.06185 12.4584 9.53043 12.025C9.99901 11.5916 10.2767 10.9901 10.3027 10.3523V3.99607C10.3027 3.83031 10.3686 3.67134 10.4858 3.55413C10.603 3.43692 10.762 3.37107 10.9277 3.37107C11.0935 3.37107 11.2525 3.43692 11.3697 3.55413C11.4869 3.67134 11.5527 3.83031 11.5527 3.99607V10.3523C11.5265 11.3216 11.1171 12.2409 10.4141 12.9087C9.71115 13.5765 8.77206 13.9383 7.80273 13.9148Z" fill="#999999"/>
</g>
</svg>
