<svg width="19" height="19" viewBox="0 0 19 19" fill="none" xmlns="http://www.w3.org/2000/svg">
<g id="hugeicons:user">
<path id="Vector" d="M5.10144 12.3224C4.04019 12.9539 1.25769 14.2439 2.95269 15.8587C3.77994 16.6469 4.70169 17.2109 5.86044 17.2109H12.4739C13.6334 17.2109 14.5552 16.6469 15.3824 15.8587C17.0774 14.2439 14.2949 12.9539 13.2337 12.3224C12.002 11.5948 10.5977 11.211 9.16719 11.211C7.73667 11.211 6.3331 11.5948 5.10144 12.3224ZM12.5429 5.58594C12.5429 6.48104 12.1874 7.33949 11.5544 7.97242C10.9215 8.60536 10.063 8.96094 9.16794 8.96094C8.27283 8.96094 7.41439 8.60536 6.78145 7.97242C6.14852 7.33949 5.79294 6.48104 5.79294 5.58594C5.79294 4.69083 6.14852 3.83239 6.78145 3.19945C7.41439 2.56652 8.27283 2.21094 9.16794 2.21094C10.063 2.21094 10.9215 2.56652 11.5544 3.19945C12.1874 3.83239 12.5429 4.69083 12.5429 5.58594Z" stroke="#888888" stroke-width="1.2" stroke-linecap="round" stroke-linejoin="round"/>
</g>
</svg>
