<svg width="17" height="17" viewBox="0 0 17 17" fill="none" xmlns="http://www.w3.org/2000/svg">
<g id="lucide:image">
<g id="Group">
<path id="Vector" d="M13.2292 2.75H3.89583C3.15945 2.75 2.5625 3.34695 2.5625 4.08333V13.4167C2.5625 14.153 3.15945 14.75 3.89583 14.75H13.2292C13.9655 14.75 14.5625 14.153 14.5625 13.4167V4.08333C14.5625 3.34695 13.9655 2.75 13.2292 2.75Z" stroke="#999999" stroke-width="1.3" stroke-linecap="round" stroke-linejoin="round"/>
<path id="Vector_2" d="M6.56185 8.08073C7.29823 8.08073 7.89518 7.48378 7.89518 6.7474C7.89518 6.01102 7.29823 5.41406 6.56185 5.41406C5.82547 5.41406 5.22852 6.01102 5.22852 6.7474C5.22852 7.48378 5.82547 8.08073 6.56185 8.08073Z" stroke="#999999" stroke-width="1.3" stroke-linecap="round" stroke-linejoin="round"/>
<path id="Vector_3" d="M14.5625 10.7524L12.5052 8.69507C12.2551 8.44511 11.9161 8.30469 11.5625 8.30469C11.2089 8.30469 10.8699 8.44511 10.6198 8.69507L4.5625 14.7524" stroke="#999999" stroke-width="1.3" stroke-linecap="round" stroke-linejoin="round"/>
</g>
</g>
</svg>
