<svg width="19" height="19" viewBox="0 0 19 19" fill="none" xmlns="http://www.w3.org/2000/svg">
<g id="solar:phone-linear">
<path id="Vector" d="M13.3059 11.1288L13.6479 10.789L12.8536 9.99104L12.5131 10.3308L13.3059 11.1288ZM14.7946 10.6465L16.2279 11.4258L16.7641 10.4373L15.3316 9.65879L14.7946 10.6465ZM16.5031 12.9738L15.4381 14.0335L16.2309 14.8308L17.2959 13.7718L16.5031 12.9738ZM14.7886 14.374C13.7011 14.476 10.8886 14.3853 7.84211 11.3568L7.04861 12.154C10.3726 15.4593 13.5369 15.6213 14.8936 15.4945L14.7886 14.374ZM7.84211 11.3568C4.93886 8.46929 4.45736 6.04154 4.39736 4.98779L3.27386 5.05154C3.34886 6.37754 3.94511 9.06854 7.04861 12.154L7.84211 11.3568ZM8.87336 6.72179L9.08861 6.50729L8.29661 5.71004L8.08136 5.92379L8.87336 6.72179ZM9.25961 3.78104L8.31461 2.51804L7.41386 3.19304L8.35886 4.45529L9.25961 3.78104ZM5.13386 2.24279L3.95636 3.41279L4.74986 4.21079L5.92661 3.04079L5.13386 2.24279ZM8.47736 6.32279C8.07986 5.92379 8.07986 5.92379 8.07986 5.92529H8.07836L8.07611 5.92829C8.04047 5.96423 8.00856 6.00368 7.98086 6.04604C7.94036 6.10604 7.89611 6.18479 7.85861 6.28454C7.76732 6.54204 7.74458 6.81885 7.79261 7.08779C7.89311 7.73654 8.34011 8.59379 9.48461 9.73229L10.2781 8.93429C9.20636 7.86929 8.95136 7.22129 8.90411 6.91529C8.88161 6.76979 8.90486 6.69779 8.91161 6.68129C8.91611 6.67129 8.91611 6.66979 8.91161 6.67679C8.90493 6.68714 8.8974 6.69692 8.88911 6.70604L8.88161 6.71354L8.87411 6.72029L8.47736 6.32279ZM9.48461 9.73229C10.6299 10.8708 11.4916 11.3148 12.1411 11.4138C12.4734 11.4648 12.7411 11.4243 12.9444 11.3485C13.0582 11.3069 13.1646 11.2471 13.2594 11.1715L13.2969 11.1378L13.3021 11.1333L13.3044 11.131L13.3051 11.1295C13.3051 11.1295 13.3059 11.1288 12.9091 10.7298C12.5116 10.3308 12.5139 10.33 12.5139 10.33L12.5154 10.3285L12.5169 10.327L12.5214 10.3233L12.5289 10.3158L12.5574 10.2933C12.5644 10.2888 12.5626 10.2893 12.5521 10.2948C12.5334 10.3015 12.4599 10.3248 12.3121 10.3023C12.0016 10.2543 11.3491 9.99929 10.2781 8.93429L9.48461 9.73229ZM8.31461 2.51729C7.54961 1.49729 6.04661 1.33529 5.13386 2.24279L5.92661 3.04079C6.32561 2.64404 7.03361 2.68529 7.41386 3.19304L8.31461 2.51729ZM4.39811 4.98854C4.38311 4.72904 4.50236 4.45754 4.74986 4.21154L3.95561 3.41354C3.55286 3.81404 3.23561 4.38104 3.27386 5.05154L4.39811 4.98854ZM15.4381 14.0335C15.2326 14.239 15.0106 14.3545 14.7894 14.3748L14.8936 15.4945C15.4449 15.4428 15.8956 15.1653 16.2316 14.8315L15.4381 14.0335ZM9.08861 6.50729C9.82736 5.77304 9.88211 4.61279 9.26036 3.78179L8.35961 4.45604C8.66186 4.86029 8.61686 5.39054 8.29587 5.71079L9.08861 6.50729ZM16.2286 11.4265C16.8414 11.7595 16.9366 12.544 16.5039 12.9745L17.2974 13.7718C18.3024 12.772 17.9926 11.1048 16.7649 10.438L16.2286 11.4265ZM13.6479 10.7898C13.9359 10.5033 14.3994 10.4328 14.7954 10.6473L15.3324 9.65954C14.5194 9.21704 13.5114 9.33929 12.8544 9.99179L13.6479 10.7898Z" fill="#888888"/>
</g>
</svg>
