<svg width="19" height="19" viewBox="0 0 19 19" fill="none" xmlns="http://www.w3.org/2000/svg">
<g id="solar:calendar-outline">
<path id="Vector" d="M12.918 10.5391C13.1169 10.5391 13.3076 10.46 13.4483 10.3194C13.589 10.1787 13.668 9.98797 13.668 9.78906C13.668 9.59015 13.589 9.39938 13.4483 9.25873C13.3076 9.11808 13.1169 9.03906 12.918 9.03906C12.7191 9.03906 12.5283 9.11808 12.3876 9.25873C12.247 9.39938 12.168 9.59015 12.168 9.78906C12.168 9.98797 12.247 10.1787 12.3876 10.3194C12.5283 10.46 12.7191 10.5391 12.918 10.5391ZM12.918 13.5391C13.1169 13.5391 13.3076 13.46 13.4483 13.3194C13.589 13.1787 13.668 12.988 13.668 12.7891C13.668 12.5902 13.589 12.3994 13.4483 12.2587C13.3076 12.1181 13.1169 12.0391 12.918 12.0391C12.7191 12.0391 12.5283 12.1181 12.3876 12.2587C12.247 12.3994 12.168 12.5902 12.168 12.7891C12.168 12.988 12.247 13.1787 12.3876 13.3194C12.5283 13.46 12.7191 13.5391 12.918 13.5391ZM9.91797 9.78906C9.91797 9.98797 9.83895 10.1787 9.6983 10.3194C9.55765 10.46 9.36688 10.5391 9.16797 10.5391C8.96906 10.5391 8.77829 10.46 8.63764 10.3194C8.49699 10.1787 8.41797 9.98797 8.41797 9.78906C8.41797 9.59015 8.49699 9.39938 8.63764 9.25873C8.77829 9.11808 8.96906 9.03906 9.16797 9.03906C9.36688 9.03906 9.55765 9.11808 9.6983 9.25873C9.83895 9.39938 9.91797 9.59015 9.91797 9.78906ZM9.91797 12.7891C9.91797 12.988 9.83895 13.1787 9.6983 13.3194C9.55765 13.46 9.36688 13.5391 9.16797 13.5391C8.96906 13.5391 8.77829 13.46 8.63764 13.3194C8.49699 13.1787 8.41797 12.988 8.41797 12.7891C8.41797 12.5902 8.49699 12.3994 8.63764 12.2587C8.77829 12.1181 8.96906 12.0391 9.16797 12.0391C9.36688 12.0391 9.55765 12.1181 9.6983 12.2587C9.83895 12.3994 9.91797 12.5902 9.91797 12.7891ZM5.41797 10.5391C5.61688 10.5391 5.80765 10.46 5.9483 10.3194C6.08895 10.1787 6.16797 9.98797 6.16797 9.78906C6.16797 9.59015 6.08895 9.39938 5.9483 9.25873C5.80765 9.11808 5.61688 9.03906 5.41797 9.03906C5.21906 9.03906 5.02829 9.11808 4.88764 9.25873C4.74699 9.39938 4.66797 9.59015 4.66797 9.78906C4.66797 9.98797 4.74699 10.1787 4.88764 10.3194C5.02829 10.46 5.21906 10.5391 5.41797 10.5391ZM5.41797 13.5391C5.61688 13.5391 5.80765 13.46 5.9483 13.3194C6.08895 13.1787 6.16797 12.988 6.16797 12.7891C6.16797 12.5902 6.08895 12.3994 5.9483 12.2587C5.80765 12.1181 5.61688 12.0391 5.41797 12.0391C5.21906 12.0391 5.02829 12.1181 4.88764 12.2587C4.74699 12.3994 4.66797 12.5902 4.66797 12.7891C4.66797 12.988 4.74699 13.1787 4.88764 13.3194C5.02829 13.46 5.21906 13.5391 5.41797 13.5391Z" fill="#888888"/>
<path id="Vector_2" fill-rule="evenodd" clip-rule="evenodd" d="M5.41722 1.35156C5.5664 1.35156 5.70948 1.41083 5.81497 1.51631C5.92046 1.6218 5.97972 1.76488 5.97972 1.91406V2.48631C6.47622 2.47656 7.02297 2.47656 7.62447 2.47656H10.7092C11.3115 2.47656 11.8582 2.47656 12.3547 2.48631V1.91406C12.3547 1.76488 12.414 1.6218 12.5195 1.51631C12.625 1.41083 12.768 1.35156 12.9172 1.35156C13.0664 1.35156 13.2095 1.41083 13.315 1.51631C13.4205 1.6218 13.4797 1.76488 13.4797 1.91406V2.53431C13.6747 2.54931 13.8595 2.56831 14.034 2.59131C14.913 2.70981 15.6247 2.95881 16.1865 3.51981C16.7475 4.08156 16.9965 4.79331 17.115 5.67231C17.2297 6.52731 17.2297 7.61856 17.2297 8.99706V10.5811C17.2297 11.9596 17.2297 13.0516 17.115 13.9058C16.9965 14.7848 16.7475 15.4966 16.1865 16.0583C15.6247 16.6193 14.913 16.8683 14.034 16.9868C13.179 17.1016 12.0877 17.1016 10.7092 17.1016H7.62597C6.24747 17.1016 5.15547 17.1016 4.30122 16.9868C3.42222 16.8683 2.71047 16.6193 2.14872 16.0583C1.58772 15.4966 1.33872 14.7848 1.22022 13.9058C1.10547 13.0508 1.10547 11.9596 1.10547 10.5811V8.99706C1.10547 7.61856 1.10547 6.52656 1.22022 5.67231C1.33872 4.79331 1.58772 4.08156 2.14872 3.51981C2.71047 2.95881 3.42222 2.70981 4.30122 2.59131C4.47622 2.56831 4.66097 2.54931 4.85547 2.53431V1.91406C4.85547 1.76501 4.91463 1.62205 5.01996 1.51658C5.12528 1.41111 5.26816 1.35176 5.41722 1.35156ZM4.44972 3.70656C3.69597 3.80781 3.26097 3.99831 2.94372 4.31556C2.62647 4.63281 2.43597 5.06781 2.33472 5.82156C2.31772 5.94906 2.30322 6.08381 2.29122 6.22581H16.0432C16.0312 6.08381 16.0167 5.94881 15.9997 5.82081C15.8985 5.06706 15.708 4.63206 15.3907 4.31481C15.0735 3.99756 14.6385 3.80706 13.884 3.70581C13.1137 3.60231 12.0975 3.60081 10.6672 3.60081H7.66722C6.23697 3.60081 5.22147 3.60306 4.44972 3.70656ZM2.22972 9.03906C2.22972 8.39856 2.22972 7.84131 2.23947 7.35156H16.095C16.1047 7.84131 16.1047 8.39856 16.1047 9.03906V10.5391C16.1047 11.9693 16.1032 12.9856 15.9997 13.7566C15.8985 14.5103 15.708 14.9453 15.3907 15.2626C15.0735 15.5798 14.6385 15.7703 13.884 15.8716C13.1137 15.9751 12.0975 15.9766 10.6672 15.9766H7.66722C6.23697 15.9766 5.22147 15.9751 4.44972 15.8716C3.69597 15.7703 3.26097 15.5798 2.94372 15.2626C2.62647 14.9453 2.43597 14.5103 2.33472 13.7558C2.23122 12.9856 2.22972 11.9693 2.22972 10.5391V9.03906Z" fill="#888888"/>
</g>
</svg>
